/* XPM */
static char *result[] = {
/* columns rows colors chars-per-pixel */
"32 32 94 2 ",
"   c #130000",
".  c #140000",
"X  c #160000",
"o  c #170000",
"O  c #190000",
"+  c #1E0000",
"@  c #230100",
"#  c #2A0201",
"$  c #2E0000",
"%  c #2F0301",
"&  c #350301",
"*  c #3A0000",
"=  c #3E0000",
"-  c #490000",
";  c #4B0201",
":  c #4E0503",
">  c #4E0C08",
",  c #5D0000",
"<  c #5A0404",
"1  c #5D0B08",
"2  c #590C09",
"3  c #660E09",
"4  c #6C0A08",
"5  c #6A0D08",
"6  c #6F0C08",
"7  c #6C0D0D",
"8  c #730706",
"9  c #62130C",
"0  c #66130D",
"q  c #68100D",
"w  c #68110D",
"e  c #731508",
"r  c #7C140D",
"t  c #6D1B11",
"y  c #731310",
"u  c #741613",
"i  c #751913",
"p  c #721C13",
"a  c #7D1D13",
"s  c #791F16",
"d  c #7F2318",
"f  c #92100F",
"g  c #8B1515",
"h  c #851914",
"j  c #841F16",
"k  c #821818",
"l  c #812018",
"z  c #8B231B",
"x  c #892B18",
"c  c #8B291D",
"v  c #882B1D",
"b  c #98271F",
"n  c #9B3123",
"m  c #963A25",
"M  c #973A25",
"N  c #A72625",
"B  c #A12E23",
"V  c #AC2F20",
"C  c #A53729",
"Z  c #AC3D2C",
"A  c #C62B28",
"S  c #C23D31",
"D  c #E12E2B",
"F  c #A8472D",
"G  c #B2412F",
"H  c #BD4D36",
"J  c #A75337",
"K  c #BF5839",
"L  c #D3452C",
"P  c #C44C39",
"I  c #C0593A",
"U  c #C05B3B",
"Y  c #C8593D",
"T  c #DD533D",
"R  c #E74535",
"E  c #FF4A39",
"W  c #E9563D",
"Q  c #E0673B",
"!  c #D55A41",
"~  c #FF5E41",
"^  c #C76140",
"/  c #D66849",
"(  c #FD6645",
")  c #FF6A45",
"_  c #FF724B",
"`  c #F58B5B",
"'  c #FF9066",
"]  c #FF9E61",
"[  c #FFA869",
"{  c #FFAE76",
"}  c #FFBB8B",
"|  c #FFC281",
" . c #FFE3A0",
".. c None",
/* pixels */
"................................................................",
"....................& & ..........+ ..... ......................",
"..................& } ` & ..........o o k . ....................",
"....................& } ` & ..+ + ..o k o ....% % ..............",
"......................& } ` + D f o k o ..+ % J % ..............",
"......................& ` , , f - - - - + a U % ................",
"....................& [ , g < -  .} ` ` U U & ..................",
"..................&  .` G < -  .` / M t 9 9 & ..................",
"................&  .} ` g - } ` ^ M t  .} ` ` & ................",
"................& } ` n g - ` I Z t [ K K m m U & ..............",
"..............&  .` U h , * ` H t ` c 7 < > > m U & ............",
"..............& } ` C g , * Y t ` c - - * K m > # ..............",
"..............& ` U h 8 , $ B Q c 7 < * K m x @ ................",
"..............& ` U g , * g ! P K < 7 $ m u x e # ..............",
"..............+ U n 8 , $ S S ` z 7 m 9 $ q q e + ..............",
"................+ 8 g * N N ! P ` g ` m - * - <   ..............",
"..................+ N , * P ` j ` } [ K - 0 - - o ..............",
"................+ S N , , - , ` }  .[ L = w d 1 - o ............",
"................+ S E R * A W 5  .| ` L = l m p :   ............",
"................+ S ~ R 6 * R ] F ] ` 3 c * s 1 :   ............",
"................+ T _ 6 R , ] ( ] ` P K y * q 1 :   ............",
"..................+ ~ r ~ R , ( ] P ` G i 2 p 1 ; o ............",
"..................+ T V ) R S , ( ` P G v s 1 1 ; o ............",
"..................+ T ~ { ) , ( , P U n s q 1 ; ; o ............",
"....................+ T ~ ' R R 4 N C q s q 1 ;   ..............",
"......................+ T R ~ R W N 7 s q 1 ; ; O ..............",
"........................+ b S A N k s q 1 : : o ................",
"..........................+ k k k q q q : ; o ..................",
"............................+ 7 7 q q : ;   ....................",
"..............................+ o < ; ; O ......................",
"..................................O   X ........................",
"................................................................"
};
