/* XPM */
static char *result[] = {
/* columns rows colors chars-per-pixel */
"32 32 92 1 ",
"  c #020200",
". c #060100",
"X c #080100",
"o c #0A0100",
"O c #0D0100",
"+ c #0F0C00",
"@ c #190500",
"# c #110D00",
"$ c #170E06",
"% c #151100",
"& c #191300",
"* c #1B1500",
"= c #200800",
"- c #250B02",
"; c #2B0F05",
": c #201900",
"> c #221A00",
", c #261E00",
"< c #231708",
"1 c #2A1E0C",
"2 c #331100",
"3 c #311204",
"4 c #341507",
"5 c #331408",
"6 c #3D1B0C",
"7 c #2A2100",
"8 c #392D03",
"9 c #32220F",
"0 c #312310",
"q c #352712",
"w c #401E0E",
"e c #43370D",
"r c #402B17",
"t c #4E2814",
"y c #512C15",
"u c #44341D",
"i c #483718",
"p c #4C361C",
"a c #4C3121",
"s c #583925",
"d c #5B3B26",
"f c #5B3B27",
"g c #5B3D27",
"h c #553A28",
"j c #5B3E2B",
"k c #5E3F28",
"l c #663820",
"z c #673F25",
"x c #4C4016",
"c c #574622",
"v c #59452D",
"b c #5F4E28",
"n c #5C5026",
"m c #764629",
"M c #764B2F",
"N c #6B5B2F",
"B c #654732",
"V c #6E5D33",
"C c #6B533B",
"Z c #786536",
"A c #736239",
"S c #705744",
"D c #7B634D",
"F c #87583A",
"G c #925936",
"H c #85664D",
"J c #9B6340",
"K c #877848",
"L c #8C7B51",
"P c #8D7F50",
"I c #86715C",
"U c #8C735C",
"Y c #A76943",
"T c #BF7B51",
"R c #8E7864",
"E c #9B7E64",
"W c #927F68",
"Q c #928258",
"! c #9F8D5C",
"~ c #9D8D75",
"^ c #A5937A",
"/ c #ABA071",
"( c #B3A97C",
") c #E48E5C",
"_ c #AB9984",
"` c #B9AD89",
"' c #C1B282",
"] c #C9BB8F",
"[ c #E3E0C0",
"{ c #FFFFEC",
"} c white",
"| c None",
/* pixels */
"||||||||||||||||||||||||||||||||",
"||||||||||||||||||||||||||||||||",
"||||||||||||||||||||||||||||||||",
"||||||||||||||||||||||||||||||||",
"||||||||||||||||||||||||||||||||",
"|||||||||$$$$$$|||||||||||||||||",
"|||||$$$${{{}}}$||||||||||||||||",
"|||$$]{{{[[{{}}}$|||||||||||||||",
"||$!]((P([{{{{{}}$$|||||||||||||",
"||$!(PA`[{{((([{{}}$$|||||||||||",
"|$Z(PAQ[{[Q  +#[{{{}{oO|||||||||",
"|$NQbA[[[Q %:77*[{{{R_Eo||||||||",
"|$cbA`[[` %:778e>[[{B~FTo|||||||",
"|$cbQ`[[[ :778en>{[vDW^F)O||||||",
"|$icV``[[ ,78xn>}[[26yDUJ)O|||||",
"|$icVL`[[[+78>>}{/LdI66yzH)O||||",
"|$iccV``[[{&>}}{/LprCIS6ymJ)o|||",
"|$iicVV``[[{{''/LV9h;;6j6ymJ)o||",
"||$$icVVL`[///KVVV=3a;;66symYo||",
"||||$icVVVVVVqqqq0@@--;;46yyMo||",
"|||||$icc1111K//'uwt@@-;;46yzYo|",
"||||||$<<iccVVK///uktl@@;;4yyGo|",
"|||||||$iiiiccVVL/u6gttl@=44yMo|",
"||||||||$$$$$$$VVL/466fwwXX4yzo|",
"|||||||||||||||$$$L-;55.X||X6yo|",
"||||||||||||||||||$XXXX|||||X6o|",
"|||||||||||||||||||||||||||||Xo|",
"||||||||||||||||||||||||||||||||",
"||||||||||||||||||||||||||||||||",
"||||||||||||||||||||||||||||||||",
"||||||||||||||||||||||||||||||||",
"||||||||||||||||||||||||||||||||"
};
