/* XPM */
static char *result[] = {
/* columns rows colors chars-per-pixel */
"32 32 42 1 ",
"  c #130D05",
". c #1A1208",
"X c #312310",
"o c #332511",
"O c #362712",
"+ c #44341D",
"@ c #483718",
"# c #503E1D",
"$ c #473720",
"% c #4B3B20",
"& c #4A3A22",
"* c #574622",
"= c #5B4924",
"- c #5A4931",
"; c #5F4F32",
": c #6B5B2F",
"> c #635336",
", c #6A5732",
"< c #6E5D33",
"1 c #746537",
"2 c #736239",
"3 c #77643E",
"4 c #78673E",
"5 c #776844",
"6 c #78694D",
"7 c #86734D",
"8 c #877848",
"9 c #8C7B51",
"0 c #8D7F50",
"q c #928258",
"w c #968660",
"e c #928364",
"r c #A49570",
"t c #A49776",
"y c #B3A97C",
"u c #B9AD89",
"i c #BAB186",
"p c #C9BB8F",
"a c #E3E0C0",
"s c #FBF8EC",
"d c white",
"f c None",
/* pixels */
"ffffffffffffffffffffffffffffffff",
"fffffffffffffffffffff   ffffffff",
"ffffffffffffffffffff sau fffffff",
"fffffffffffffff ff  dsaau ffffff",
"ffffff ffffff  a  dss   au fffff",
"fffff d ffff saaasss fff q fffff",
"fffff sd fff yaaypa ffff q fffff",
"ffff sssd   yssuyyy ffff q fffff",
"ffff aassssydd  2qyu   f q2 ffff",
"ffff yaaaaads ff 2qaau9 yq2 ffff",
"fffff yatdss ffff uu6ayyq4@ ffff",
"fffff 05dssaa    quau>wq3* fffff",
"fffff ;w7dssaauqquau7-q%* ffffff",
"fffff.:,sespsysysys7u&%*% ffffff",
"fffff $sa6awswswaw7siO*@@ ffffff",
"fffff +su..d.s.a.a sao%@ fffffff",
"fffff.+a ff.f.f f f so @ fffffff",
"fffff.Xu ffffffffff p f  fffffff",
"fffff Xu ffffffffff  ff  fffffff",
"fffff - fffffffffff fff  fffffff",
"fffff -y fffffffff ffff  fffffff",
"fffff y ffffffffffffff @ fffffff",
"fffff y f fffffff ffff @ fffffff",
"ffffff y d fffffff  f =* fffffff",
"ffffff yws fffffff p 8< ffffffff",
"fffffff aw f f f f y$#* ffffffff",
"fffffff uas.s s p y,y* fffffffff",
"ffffffff qasrsra,y,y* ffffffffff",
"fffffffff qaaaayy0y* fffffffffff",
"ffffffffff   yy0012 ffffffffffff",
"fffffffffffff      fffffffffffff",
"ffffffffffffffffffffffffffffffff"
};
