/* XPM */
static char *result[] = {
/* columns rows colors chars-per-pixel */
"32 32 90 1 ",
"  c #060300",
". c #070400",
"X c #020004",
"o c #030005",
"O c #090000",
"+ c #090500",
"@ c #0B0600",
"# c #0E0800",
"$ c #130C04",
"% c #171007",
"& c #1F1308",
"* c #1E1509",
"= c #17001F",
"- c #310000",
"; c #390601",
": c #261B03",
"> c #322508",
", c #3D2F0B",
"< c #2B2112",
"1 c #200028",
"2 c #25002F",
"3 c #300037",
"4 c #481304",
"5 c #531C06",
"6 c #44360E",
"7 c #413310",
"8 c #49391F",
"9 c #672C09",
"0 c #74370C",
"q c #524314",
"w c #59491D",
"e c #63531C",
"r c #645425",
"t c #6A582F",
"y c #796733",
"u c #7A6934",
"i c #380041",
"p c #3C0A44",
"a c #420B4A",
"s c #43104B",
"d c #460B50",
"f c #470B50",
"g c #4A0C55",
"h c #4D0C58",
"j c #4D1955",
"k c #53115E",
"l c #540C61",
"z c #570C65",
"x c #591A63",
"c c #5A1B65",
"v c #5C1B68",
"b c #631C6F",
"n c #6C1D7A",
"m c #6F1E7F",
"M c #701E7F",
"N c #61206C",
"B c #632B6C",
"V c #612172",
"C c #742E7F",
"Z c #88480F",
"A c #C3742E",
"S c #938148",
"D c #928248",
"F c #928258",
"G c #AE9D62",
"H c #B0A064",
"J c #B3A97C",
"K c #7A1F8C",
"L c #742E80",
"P c #7F308D",
"I c #85209A",
"U c #883297",
"Y c #8B329B",
"T c #8C329C",
"R c #9033A1",
"E c #9A34AF",
"W c #9D35B1",
"Q c #AE37C8",
"! c #BE39DB",
"~ c #B9AD89",
"^ c #C9BB8F",
"/ c #DECD8F",
"( c #FFE486",
") c #C9C0A4",
"_ c #FFFFBF",
"` c #ACCEED",
"' c #E3E0C0",
"] c #FFF9DE",
"[ c white",
"{ c None",
/* pixels */
"{{{{{{{{{{{{{{{{{{{{{{{{{{{{{{{{",
"{{{{{{{{{{{{XXXXXXXX{{{{{{{{{{{{",
"{{{{{{{{{{{X2iddxNCCXXXXXXX{{{{{",
"{{{{{{{{{{{X33psjjBLURRR!!!XX{{{",
"{{{{{{{{{{o13ppsjjBBLLLRRRR!X{{{",
"{{{{{{{{{{X13ppppsjBBBLLLRRWX{{{",
"{{{{{{{{{X133p3&&&&jjBBBLPR=_:{{",
"{{{{{{{{{X13p3&)[[]&jjjLLLP=/:{{",
"{{{{{{{{X1333&^][]'J&jj----_e_:{",
"{{{{{{{{X133&J']]'JF&j-ZA`A-e/:{",
"{{{{{{{X1333&@'''JJF&jc--ZZ0-/X{",
"{{{{{{{X13p3 %@'JFFt&cLcc-095O{{",
"{{{{{{X133p3+<#'~@@t&cLL=D-54O{{",
"{{{{{{X13ppp3+]J#*$ jLLR=Ge-4O{{",
"{{{{{X133pppp&8JF+.jLLQR=/e-;O{{",
"{{{{{X13pppsp&'F&pjBLRW=_eH=O{{{",
"{{{{X133pppsjp&&pj----P=/e/X{{{{",
"{{{{X133pppsjjppj-ZA`A-/e_X{{{{{",
"{{{X133pppsjjVVVBj--ZZ0-e/X{{{{{",
"{{{o133pppsjVVLLLLcc-095-/X{{{{{",
"{{X113pppsjvCCPPPPLLc-55-X{{{{{{",
"{{X=333pllnnYTTRRRREL-54-X{{{{{{",
"{X7r===3ppknIIW!!!QR=D-4O{{{{{{{",
"{X7,,6y===gggbKKK!WM=H-;O{{{{{{{",
"{{X7wu6qqS===ahzmKm=/e=O{{{{{{{{",
"{{{XX>wuSqeeH===fzz=e/X{{{{{{{{{",
"{{{{{XXXquuHeeeH===/eX{{{{{{{{{{",
"{{{{{{{{XXXqDD(eeHee/X{{{{{{{{{{",
"{{{{{{{{{{{XXXeDH(e/X{{{{{{{{{{{",
"{{{{{{{{{{{{{{XXXeeGX{{{{{{{{{{{",
"{{{{{{{{{{{{{{{{{XXX{{{{{{{{{{{{",
"{{{{{{{{{{{{{{{{{{{{{{{{{{{{{{{{"
};
