/* XPM */
static char *e406222046a24170e00284dca94ce17da8pAzmOG4cXoeGPf[] = {
/* columns rows colors chars-per-pixel */
"32 32 9 1 ",
"  c None",
". c #1F240A",
"X c #183F39",
"o c #550F0A",
"O c #276468",
"+ c #9B1A0A",
"@ c #EF3A0C",
"# c #EF692F",
"$ c #3C9F9C",
/* pixels */
"                                ",
"              ...               ",
"             .....              ",
"             .#o#.              ",
"             .ooo.        ##    ",
"             .....      ##  #   ",
"            ......OO$  ##       ",
"           ........OO$  #       ",
"          .X$$$$$$$XOO   #      ",
"         ..XX$$$$$$$X     ++    ",
"         .XXXOOOOOOOXX  $$++    ",
"        ..XX$$++@OOOXO$$$O      ",
"        ..X$$O++XXX.XO$OO       ",
"        ..$$O@@XXXX...          ",
"        ..$OX@@XXXX...          ",
"        ....@OOO.OO...          ",
"        ...@.XXXXXX...          ",
"        ..@..XXXXXX...          ",
"        .@...XXXXXXX..          ",
"         ...XXXX.XXX..          ",
"         .. XXX..XXX .          ",
"          . XXX .XXX            ",
"           XXXX XXXX            ",
"           X$$  XX$$            ",
"           XOO  XXOO            ",
"           O$    O$             ",
"           O$    O$             ",
"           O$    O$             ",
"           O$$...O$$            ",
"          .XOO...XOO.           ",
"           .........            ",
"                                "
};
